<svg width="21" height="25" viewBox="0 0 21 25" fill="none" xmlns="http://www.w3.org/2000/svg">
<path d="M4.74342 8.34248V5.97063C4.74342 4.398 5.34992 2.88978 6.42948 1.77776C7.50905 0.665741 8.97326 0.0410156 10.5 0.0410156C12.0267 0.0410156 13.4909 0.665741 14.5705 1.77776C15.6501 2.88978 16.2566 4.398 16.2566 5.97063V8.34248H19.7105C20.0159 8.34248 20.3087 8.46742 20.5246 8.68983C20.7405 8.91223 21 9.35693 21 9.67145V16.5024V23.9025C21 24.2171 20.7405 24.3757 20.5246 24.5981C20.3087 24.8205 19.6475 25.041 19.3421 25.041H1.65789C1.35255 25.041 0.691284 24.8205 0.47537 24.5981C0.259457 24.3757 0 24.0603 0 23.7457V9.67145C0 9.35693 0.259457 8.91223 0.47537 8.68983C0.691284 8.46742 0.984126 8.34248 1.28947 8.34248H4.74342ZM4.74342 10.2407H1.65789V23.3333H19.3421V10.2407H16.2566V13.0862H14.3684V10.2407H6.42948V13.0862H4.74342V10.2407ZM6.42948 8.34248H14.5705V5.68675C14.5705 4.74317 13.9109 3.50775 13.2632 2.84054C12.6154 2.17332 11.416 1.77776 10.5 1.77776C9.58396 1.77776 8.38458 2.17332 7.73684 2.84054C7.0891 3.50775 6.42948 4.74317 6.42948 5.68675V8.34248Z" fill="#252525"/>
</svg>
