<svg width="19" height="19" viewBox="0 0 19 19" fill="none" xmlns="http://www.w3.org/2000/svg">
<path d="M14.25 17H4.75V18C4.75 18.2652 4.64991 18.5196 4.47175 18.7071C4.29359 18.8946 4.05196 19 3.8 19H1.9C1.64804 19 1.40641 18.8946 1.22825 18.7071C1.05009 18.5196 0.95 18.2652 0.95 18V9H0V5H0.95V2C0.95 1.46957 1.15018 0.960859 1.5065 0.585786C1.86282 0.210714 2.34609 0 2.85 0H16.15C16.6539 0 17.1372 0.210714 17.4935 0.585786C17.8498 0.960859 18.05 1.46957 18.05 2V5H19V9H18.05V18C18.05 18.2652 17.9499 18.5196 17.7718 18.7071C17.5936 18.8946 17.352 19 17.1 19H15.2C14.948 19 14.7064 18.8946 14.5282 18.7071C14.3501 18.5196 14.25 18.2652 14.25 18V17ZM2.85 2V8H16.15V2H2.85ZM16.15 10H2.85V15H16.15V10ZM5.225 14C4.84707 14 4.48461 13.842 4.21737 13.5607C3.95013 13.2794 3.8 12.8978 3.8 12.5C3.8 12.1022 3.95013 11.7206 4.21737 11.4393C4.48461 11.158 4.84707 11 5.225 11C5.60293 11 5.96539 11.158 6.23263 11.4393C6.49987 11.7206 6.65 12.1022 6.65 12.5C6.65 12.8978 6.49987 13.2794 6.23263 13.5607C5.96539 13.842 5.60293 14 5.225 14ZM13.775 14C13.3971 14 13.0346 13.842 12.7674 13.5607C12.5001 13.2794 12.35 12.8978 12.35 12.5C12.35 12.1022 12.5001 11.7206 12.7674 11.4393C13.0346 11.158 13.3971 11 13.775 11C14.1529 11 14.5154 11.158 14.7826 11.4393C15.0499 11.7206 15.2 12.1022 15.2 12.5C15.2 12.8978 15.0499 13.2794 14.7826 13.5607C14.5154 13.842 14.1529 14 13.775 14Z" fill="#1B1C1D"/>
</svg>
