<svg width="25" height="22" viewBox="0 0 25 22" fill="none" xmlns="http://www.w3.org/2000/svg">
<path d="M21.9759 1.49788C20.8251 0.534967 19.3472 0.00579011 17.8153 0.00579011C16.0459 0.00579011 14.3332 0.717368 13.1169 1.96024C12.8982 2.184 12.6933 2.4242 12.5009 2.68508C11.0114 0.680251 8.52272 -0.348408 6.06129 0.106535C4.01875 0.481413 2.41293 1.61665 1.29152 3.47831C-0.290711 6.10669 -0.420205 8.64175 0.908809 11.0135C1.61919 12.2824 2.54085 13.5189 3.72674 14.7936C5.89877 17.1287 8.46977 19.3451 11.8183 21.7662C12.0322 21.9215 12.2613 22 12.5003 22C12.8684 22 13.1169 21.8118 13.2401 21.7195C16.2614 19.5376 18.6348 17.5264 20.7098 15.3869C21.8684 14.1928 23.1833 12.7251 24.1448 10.8921C24.5569 10.1089 25.0266 9.05481 24.9988 7.85064C24.937 5.25937 23.9204 3.12199 21.9759 1.49788ZM22.5709 10.0469C21.7148 11.6768 20.5069 13.022 19.4374 14.1239C17.5186 16.1027 15.3245 17.9755 12.4972 20.0402C9.42026 17.7889 7.03853 15.7215 5.02534 13.556C3.93854 12.3879 3.09919 11.2654 2.45906 10.1227C1.44566 8.3146 1.55837 6.50013 2.81452 4.41524C3.65963 3.01117 4.85915 2.15749 6.38057 1.87806C6.67206 1.82397 6.96722 1.79746 7.25819 1.79746C9.06167 1.79746 10.6591 2.80491 11.5614 4.55416L11.7145 4.84632C11.8717 5.14484 12.1957 5.31452 12.5155 5.32247C12.8505 5.31611 13.153 5.12257 13.3004 4.81822C13.617 4.16497 13.9625 3.65806 14.384 3.22645C15.2679 2.32451 16.5183 1.80647 17.8153 1.80647C18.9336 1.80647 20.0078 2.18983 20.8409 2.88657C22.3906 4.18087 23.1676 5.8193 23.2174 7.89147C23.2347 8.67357 22.9007 9.41908 22.5709 10.0469Z" fill="#1B1C1D"/>
</svg>
