<svg width="16" height="16" viewBox="0 0 16 16" fill="none" xmlns="http://www.w3.org/2000/svg">
<circle cx="8" cy="8" r="7.5" stroke="#979797"/>
<path d="M8.74 10.2402C8.74 9.57617 8.716 8.96817 8.668 8.41617C8.62 7.86417 8.56 7.30817 8.488 6.74817H7.456C7.376 7.30817 7.312 7.86417 7.264 8.41617C7.216 8.97617 7.192 9.58417 7.192 10.2402V12.4722H8.74V10.2402ZM8.92 4.94817C8.92 4.66817 8.828 4.44017 8.644 4.26417C8.46 4.08817 8.232 4.00017 7.96 4.00017C7.696 4.00017 7.468 4.08817 7.276 4.26417C7.092 4.44017 7 4.66817 7 4.94817C7 5.22817 7.092 5.45617 7.276 5.63217C7.468 5.81617 7.696 5.90817 7.96 5.90817C8.232 5.90817 8.46 5.81617 8.644 5.63217C8.828 5.45617 8.92 5.22817 8.92 4.94817Z" fill="#979797"/>
</svg>
