<svg width="225" height="38" viewBox="0 0 225 38" fill="none" xmlns="http://www.w3.org/2000/svg">
<path d="M186.919 30.917C188.643 30.917 190.102 29.8696 190.102 28.0366C190.102 26.3345 188.777 25.1562 186.919 25.1562C185.194 25.1562 183.734 26.3345 183.734 28.0366C183.734 29.7387 185.061 30.917 186.919 30.917Z" fill="#009DE0"/>
<path d="M199.002 17.1693C198.736 14.2889 194.624 14.5507 192.5 15.0744V17.9549C193.827 17.9549 193.827 18.4784 193.827 19.6569V30.2618H199.134V22.6682C199.134 20.3114 200.726 19.2641 202.451 19.1332C203.246 19.1332 204.175 19.2641 205.104 19.9187L206.165 15.5981C205.37 14.9436 204.175 14.6816 202.981 14.6816C201.388 14.6816 199.532 15.4672 199.002 17.1693ZM218.104 15.2054V23.7155C218.104 25.4175 216.911 26.465 215.717 26.465C214.655 26.465 213.726 25.6794 213.726 23.8465V16.7764L208.287 15.3363V23.9774C208.287 27.7742 209.349 30.7855 213.992 30.7855C215.717 30.7855 217.573 29.869 218.37 28.298C218.37 31.702 222.88 31.0473 224.87 30.5237V27.2505C223.677 27.2505 223.543 26.7268 223.543 25.8103V16.6456L218.104 15.2054Z" fill="black"/>
<path d="M114.617 21.7504C114.617 20.0484 115.944 19.0009 117.138 19.1319C118.332 19.1319 119.393 19.9174 119.393 21.7504V26.8565C119.393 31.0462 123.108 31.177 126.292 30.3915V27.642C124.965 27.642 124.832 26.9874 124.832 25.94V21.8814C124.965 17.9536 123.24 15.0731 118.863 15.0731C117.005 15.0731 115.413 15.9896 114.485 17.6916C114.485 14.2876 109.841 14.8113 107.719 15.3351V18.2154C109.311 18.0845 109.311 18.6081 109.311 19.9174V30.3915H114.75V21.7504H114.617ZM137.17 14.8113C131.996 14.6804 128.281 17.2989 128.149 22.5359C128.149 26.8565 130.272 30.5224 135.047 30.5224C136.905 30.5224 138.629 29.6059 139.558 28.0349V28.1657C139.558 31.0462 143.272 30.5224 145.262 30.1297V27.2492C143.936 27.2492 143.936 26.7255 143.936 25.5472V16.2516C141.813 15.3351 139.425 14.8113 137.17 14.8113ZM138.629 22.5359C138.629 24.3689 137.833 25.8091 136.241 25.8091C134.517 25.8091 133.588 24.6307 133.588 22.6669C133.721 20.1793 134.915 19.1319 136.772 19.1319C137.303 19.1319 137.966 19.1319 138.629 19.3937V22.5359ZM153.62 16.9061L148.181 15.466V30.3915H153.62V16.9061ZM166.754 25.5472C166.886 29.8677 170.601 30.7842 174.05 30.7842C177.5 30.7842 180.949 29.0822 181.081 25.6782C181.213 21.6194 177.5 21.2267 174.183 20.8339C173.388 20.7029 172.325 20.7029 172.459 19.7866C172.459 19.1319 173.254 18.8701 174.05 18.7391C174.979 18.7391 175.908 19.1319 175.908 19.9174H180.683C180.817 16.6443 177.367 14.8113 173.918 14.8113C170.469 14.8113 167.02 16.3824 167.02 19.9174C167.02 23.5834 170.866 24.2379 173.918 24.4999C174.713 24.6307 175.642 24.7617 175.642 25.6782C175.642 26.4637 174.713 26.8565 173.918 26.8565C172.989 26.8565 172.193 26.4637 172.193 25.5472H166.754Z" fill="black"/>
<path d="M157.203 7.34961V24.239C157.203 30.1307 160.652 31.309 165.429 30.3925L165.296 26.4647C163.705 26.7267 162.642 26.3339 162.642 24.239V8.92071L157.203 7.34961Z" fill="black"/>
<path d="M33.7969 25.5951C33.9296 29.9157 37.6441 30.8322 41.0933 30.8322C44.5427 30.8322 47.9919 29.1302 48.1244 25.7261C48.2571 21.6674 44.5427 21.2746 41.226 20.8818C40.43 20.7509 39.3687 20.7509 39.5014 19.8344C39.5014 19.1798 40.2973 18.9179 41.0933 18.7871C42.0219 18.7871 42.9506 19.1798 42.9506 19.9653H47.7265C47.8592 16.6921 44.4099 14.8593 40.9607 14.8593C37.5115 14.8593 34.0623 16.4303 34.0623 19.9653C34.0623 23.6312 37.9095 24.2859 40.9607 24.5477C41.7567 24.6786 42.6853 24.8096 42.6853 25.7261C42.6853 26.5116 41.7567 26.9044 40.9607 26.9044C40.1648 26.9044 39.2361 26.5116 39.2361 25.5951H33.7969ZM51.1757 7.39648V30.3085H56.6149V21.6674C56.6149 19.9653 57.9415 19.0488 59.2682 19.0488C60.4621 19.0488 61.5235 19.8344 61.5235 21.6674V26.5116C61.5235 30.5702 65.1054 31.094 68.5546 30.1775V27.1662C67.228 27.1662 66.9626 26.7734 66.9626 25.5951V21.6674C66.9626 17.7396 65.3707 14.8593 60.9928 14.8593C59.2682 14.8593 57.5436 15.6448 56.7476 17.085V8.83666L51.1757 7.39648ZM86.4641 22.7148C86.4641 17.4778 82.4842 14.7283 78.3716 14.7283C74.2591 14.7283 70.1465 17.3468 70.1465 22.7148C70.1465 28.0827 74.2591 30.7012 78.3716 30.7012C82.4842 30.7012 86.4641 28.0827 86.4641 22.7148ZM94.1585 17.085C94.1585 14.2046 90.3113 14.7283 88.5867 15.1211V18.0014C89.9133 18.0014 89.7808 18.6561 89.7808 19.7036V36.462L94.8219 37.9022V28.3446C95.6178 29.9157 97.2099 30.4394 98.9345 30.4394C103.445 30.4394 105.568 26.6425 105.568 22.5839C105.568 18.2633 103.445 14.5973 98.6691 14.5973C96.8117 14.7283 94.9546 15.6448 94.1585 17.085ZM97.3424 19.4416C99.067 19.3106 100.128 20.7509 100.128 22.7148C100.128 24.8096 99.3325 26.1189 97.4751 26.1189C95.8832 26.1189 95.0871 24.5477 95.0871 22.7148C94.9546 20.7509 95.7505 19.4416 97.3424 19.4416Z" fill="black"/>
<path fill-rule="evenodd" clip-rule="evenodd" d="M78.4498 19.002C79.9091 19.7875 81.3683 21.6205 81.3683 23.1915C81.3683 24.7626 80.0418 26.072 78.4498 26.072C76.8579 26.072 75.5312 24.7626 75.5312 23.1915C75.664 21.6205 77.1232 19.7875 78.4498 19.002Z" fill="#FFED00"/>
<path fill-rule="evenodd" clip-rule="evenodd" d="M150.839 6.95703C152.298 7.74259 153.758 9.57554 153.758 11.1466C153.758 12.7178 152.432 14.027 150.839 14.027C149.247 14.027 147.922 12.7178 147.922 11.1466C147.922 9.57554 149.381 7.74259 150.839 6.95703Z" fill="#CD5783"/>
<path opacity="0.8" fill-rule="evenodd" clip-rule="evenodd" d="M14.7295 35.6663C20.4341 32.3932 26.0059 25.3232 26.0059 19.1697C26.0059 13.0162 20.9646 8.04102 14.7295 8.04102C8.49432 8.04102 3.45312 13.0162 3.45312 19.1697C3.45312 25.4542 9.2903 32.655 14.7295 35.6663Z" fill="#FFED00"/>
<path opacity="0.8" fill-rule="evenodd" clip-rule="evenodd" d="M5.70766 30.8212C12.3408 30.8212 20.6986 27.5479 23.7499 22.1801C26.9337 16.8121 25.0765 10.004 19.6373 6.99268C14.1981 3.9814 7.29961 5.68342 4.24837 11.0514C1.06445 16.4193 2.52376 25.5841 5.70766 30.8212Z" fill="#6D304E"/>
<path opacity="0.8" fill-rule="evenodd" clip-rule="evenodd" d="M0.265625 22.181C5.97013 25.4541 14.9913 26.6325 20.2978 23.6212C25.7369 20.479 27.5942 13.6708 24.4103 8.43377C21.359 3.06582 14.3279 1.23288 9.02138 4.3751C3.5822 7.38638 0.265625 16.1584 0.265625 22.181Z" fill="#CD5783"/>
<path opacity="0.8" fill-rule="evenodd" clip-rule="evenodd" d="M0 12.0994C3.31657 17.7292 10.4804 23.2281 16.7155 23.2281C22.9507 23.2281 27.9919 18.2528 27.9919 12.0994C27.9919 5.94588 22.9507 0.970703 16.7155 0.970703C10.3477 0.970703 3.05124 6.73144 0 12.0994Z" fill="#2C3766"/>
<path opacity="0.8" fill-rule="evenodd" clip-rule="evenodd" d="M4.90625 3.19648C4.90625 9.74277 8.22283 17.9911 13.662 21.0024C19.1012 24.1447 25.9996 22.3117 29.0509 16.9437C32.2348 11.5757 30.3775 4.76761 24.9384 1.75631C19.4992 -1.3859 10.2128 0.0542726 4.90625 3.19648Z" fill="#009DE0"/>
</svg>
