<svg width="25" height="25" viewBox="0 0 25 25" fill="none" xmlns="http://www.w3.org/2000/svg">
<g clip-path="url(#clip0_2_858)">
<path fill-rule="evenodd" clip-rule="evenodd" d="M13.3217 2.91092C13.0617 2.80378 12.7709 2.80007 12.5083 2.90057L3.56951 6.3203L6.90521 7.48044L16.0276 4.02572L13.3217 2.91092ZM18.4971 5.04318L9.59301 8.41524L12.918 9.57166L21.5978 6.32067L18.4971 5.04318ZM23.1855 7.67606L13.8366 11.1777V21.7713L23.1855 18.2697V7.67606ZM12.0221 21.8037V11.1937L1.81452 7.64359V18.2536L12.0221 21.8037ZM11.864 1.19186C12.5565 0.926928 13.323 0.936689 14.0087 1.21917L24.4362 5.51534C24.7772 5.65584 25 5.9901 25 6.36122V18.9049C25 19.2868 24.7643 19.6284 24.4089 19.7615L13.2456 23.9427C13.0485 24.0165 12.832 24.0191 12.6333 23.95L0.611162 19.7687C0.245409 19.6415 0 19.2947 0 18.9049V6.36122C0 5.98167 0.232892 5.64163 0.585136 5.50687L11.864 1.19186Z" fill="#1B1C1D" stroke="white" stroke-width="0.1" stroke-linejoin="round"/>
</g>
<defs>
<clipPath id="clip0_2_858">
<rect width="25" height="25" fill="white"/>
</clipPath>
</defs>
</svg>
