<svg width="11" height="14" viewBox="0 0 11 14" fill="none" xmlns="http://www.w3.org/2000/svg">
<path d="M5.5 12.1778L8.525 8.98838C9.12321 8.35758 9.53059 7.55392 9.69561 6.67902C9.86063 5.80411 9.7759 4.89726 9.45211 4.07313C9.12832 3.249 8.58003 2.54462 7.87656 2.04903C7.17309 1.55345 6.34605 1.28894 5.5 1.28894C4.65395 1.28894 3.82691 1.55345 3.12344 2.04903C2.41997 2.54462 1.87168 3.249 1.54789 4.07313C1.2241 4.89726 1.13936 5.80411 1.30439 6.67902C1.46941 7.55392 1.87679 8.35758 2.475 8.98838L5.5 12.1778ZM5.5 14L1.61089 9.89947C0.841709 9.08846 0.317892 8.05518 0.105678 6.93029C-0.106535 5.8054 0.00238753 4.63942 0.418671 3.5798C0.834955 2.52017 1.5399 1.6145 2.44437 0.977301C3.34884 0.340103 4.41221 0 5.5 0C6.58779 0 7.65116 0.340103 8.55563 0.977301C9.4601 1.6145 10.165 2.52017 10.5813 3.5798C10.9976 4.63942 11.1065 5.8054 10.8943 6.93029C10.6821 8.05518 10.1583 9.08846 9.38911 9.89947L5.5 14ZM5.5 7.0876C5.82415 7.0876 6.13503 6.95183 6.36424 6.71016C6.59345 6.46849 6.72222 6.14071 6.72222 5.79894C6.72222 5.45716 6.59345 5.12939 6.36424 4.88772C6.13503 4.64605 5.82415 4.51028 5.5 4.51028C5.17585 4.51028 4.86497 4.64605 4.63576 4.88772C4.40655 5.12939 4.27778 5.45716 4.27778 5.79894C4.27778 6.14071 4.40655 6.46849 4.63576 6.71016C4.86497 6.95183 5.17585 7.0876 5.5 7.0876ZM5.5 8.37627C4.85169 8.37627 4.22994 8.10473 3.77152 7.62139C3.31309 7.13804 3.05556 6.48249 3.05556 5.79894C3.05556 5.11539 3.31309 4.45984 3.77152 3.97649C4.22994 3.49315 4.85169 3.22161 5.5 3.22161C6.14831 3.22161 6.77006 3.49315 7.22848 3.97649C7.6869 4.45984 7.94444 5.11539 7.94444 5.79894C7.94444 6.48249 7.6869 7.13804 7.22848 7.62139C6.77006 8.10473 6.14831 8.37627 5.5 8.37627Z" fill="#979797"/>
</svg>
