<svg width="20" height="20" viewBox="0 0 20 20" fill="none" xmlns="http://www.w3.org/2000/svg">
<path fill-rule="evenodd" clip-rule="evenodd" d="M15.7889 13.0853C17.438 13.0853 18.8065 14.4073 18.8065 16.0006C18.8065 17.5938 17.438 18.9158 15.7889 18.9158C14.1398 18.9158 12.7714 17.5938 12.7714 16.0006C12.7714 14.4073 14.1398 13.0853 15.7889 13.0853ZM15.7889 12.0684C13.5433 12.0684 11.7188 13.8311 11.7188 16.0006C11.7188 18.1701 13.5433 19.9328 15.7889 19.9328C18.0345 19.9328 19.8591 18.1701 19.8591 16.0006C19.8591 13.8311 18.0345 12.0684 15.7889 12.0684Z" fill="#1B1C1D"/>
<path fill-rule="evenodd" clip-rule="evenodd" d="M15.7889 1.28843C17.438 1.28843 18.8065 2.61047 18.8065 4.20369C18.8065 5.79691 17.438 7.11894 15.7889 7.11894C14.1398 7.11894 12.7714 5.79691 12.7714 4.20369C12.7714 2.61047 14.1398 1.28843 15.7889 1.28843ZM15.7889 0.271484C13.5433 0.271484 11.7188 2.0342 11.7188 4.20369C11.7188 6.37318 13.5433 8.13589 15.7889 8.13589C18.0345 8.13589 19.8591 6.37318 19.8591 4.20369C19.8591 2.0342 18.0345 0.271484 15.7889 0.271484Z" fill="#1B1C1D"/>
<path fill-rule="evenodd" clip-rule="evenodd" d="M4.38658 7.25523C6.03571 7.25523 7.40413 8.57726 7.40413 10.1705C7.40413 11.7637 6.03571 13.0857 4.38658 13.0857C2.73746 13.0857 1.36904 11.7637 1.36904 10.1705C1.36904 8.57726 2.73746 7.25523 4.38658 7.25523ZM4.38658 6.23828C2.14097 6.23828 0.316406 8.00099 0.316406 10.1705C0.316406 12.34 2.14097 14.1027 4.38658 14.1027C6.6322 14.1027 8.45676 12.34 8.45676 10.1705C8.45676 8.00099 6.66728 6.23828 4.38658 6.23828Z" fill="#1B1C1D"/>
<path d="M12.8426 5.7036L12.2773 4.8457L6.94934 8.12231L7.51461 8.98021L12.8426 5.7036Z" fill="#1B1C1D"/>
<path d="M12.8669 14.3777L7.74609 11.2285L7.18083 12.0864L12.3016 15.2356L12.8669 14.3777Z" fill="#1B1C1D"/>
</svg>
