<svg width="25" height="23" viewBox="0 0 25 23" fill="none" xmlns="http://www.w3.org/2000/svg">
<path d="M12.4569 12.9077C16.1515 12.9077 19.1482 10.0129 19.1482 6.44392C19.1482 2.87498 16.1515 0 12.4569 0C8.76234 0 5.76562 2.89481 5.76562 6.44392C5.76562 9.99304 8.76234 12.9077 12.4569 12.9077ZM12.4569 1.68533C15.1663 1.68533 17.383 3.8267 17.383 6.44392C17.383 9.06115 15.1663 11.2025 12.4569 11.2025C9.74756 11.2025 7.53081 9.06115 7.53081 6.44392C7.53081 3.8267 9.74756 1.68533 12.4569 1.68533Z" fill="#1B1C1D"/>
<path d="M0.882594 22.9991H24.1174C24.61 22.9991 25 22.6224 25 22.1465C25 17.6854 21.2438 14.0371 16.6051 14.0371H8.39491C3.77668 14.0371 0 17.6655 0 22.1465C0 22.6224 0.389984 22.9991 0.882594 22.9991ZM8.39491 15.7423H16.6051C19.9713 15.7423 22.7422 18.1612 23.1732 21.294H1.82677C2.2578 18.181 5.02874 15.7423 8.39491 15.7423Z" fill="#1B1C1D"/>
</svg>
