<svg width="40" height="40" viewBox="0 0 40 40" fill="none" xmlns="http://www.w3.org/2000/svg">
<path d="M40 20C40 8.95431 31.0457 0 20 0C8.95431 0 0 8.95431 0 20C0 31.0457 8.95431 40 20 40C31.0457 40 40 31.0457 40 20Z" fill="url(#paint0_linear_2_1031)"/>
<path d="M19.9989 8.57108C15.313 8.57108 10.8634 8.1546 9.16384 12.513C8.46176 14.3131 8.56376 16.6509 8.56376 19.9984C8.56376 22.9359 8.46952 25.6966 9.16384 27.4826C10.8595 31.8436 15.3453 31.4258 19.9962 31.4258C24.4834 31.4258 29.1098 31.8926 30.83 27.4826C31.5334 25.6644 31.4301 23.3614 31.4301 19.9984C31.4301 15.5343 31.6766 12.6523 29.5098 10.4885C27.316 8.29644 24.3491 8.57108 19.9937 8.57108H19.9989ZM18.9742 10.6304C28.7484 10.6149 29.9925 9.52917 29.3059 24.6122C29.062 29.9468 24.997 29.3613 20.0002 29.3613C10.8892 29.3613 10.6272 29.1008 10.6272 19.9932C10.6272 10.78 11.3499 10.6356 18.9742 10.6278V10.6304ZM26.1029 12.5272C25.3454 12.5272 24.7311 13.141 24.7311 13.8979C24.7311 14.6548 25.3454 15.2686 26.1029 15.2686C26.8604 15.2686 27.4747 14.6548 27.4747 13.8979C27.4747 13.141 26.8604 12.5272 26.1029 12.5272ZM19.9989 14.13C16.7558 14.13 14.127 16.758 14.127 19.9984C14.127 23.2389 16.7558 25.8656 19.9989 25.8656C23.2418 25.8656 25.8694 23.2389 25.8694 19.9984C25.8694 16.758 23.2418 14.13 19.9989 14.13ZM19.9989 16.1893C25.0382 16.1893 25.0447 23.8076 19.9989 23.8076C14.9607 23.8076 14.953 16.1893 19.9989 16.1893Z" fill="white"/>
<defs>
<linearGradient id="paint0_linear_2_1031" x1="2.68567" y1="37.394" x2="39.7484" y2="5.31035" gradientUnits="userSpaceOnUse">
<stop stop-color="#FFDD55"/>
<stop offset="0.5" stop-color="#FF543E"/>
<stop offset="1" stop-color="#C837AB"/>
</linearGradient>
</defs>
</svg>
