<svg width="40" height="40" viewBox="0 0 40 40" fill="none" xmlns="http://www.w3.org/2000/svg">
<g clip-path="url(#clip0_2_1034)">
<path d="M0 20C0 31.0457 8.95426 40 20 40C31.0458 40 40.0001 31.0457 40.0001 20C40.0001 8.95418 31.0458 -7.48038e-05 20 -7.48038e-05C8.95426 -7.48038e-05 0 8.95418 0 20" fill="url(#paint0_linear_2_1034)"/>
<path d="M13.5391 21.4615L15.9119 28.0293C15.9119 28.0293 16.2086 28.6436 16.5264 28.6436C16.8442 28.6436 21.5687 23.7283 21.5687 23.7283L26.823 13.58L13.6238 19.7664L13.5391 21.4615Z" fill="#C8DAEA"/>
<path d="M16.6823 23.1458L16.2267 27.9869C16.2267 27.9869 16.036 29.4699 17.5191 27.9869C19.0022 26.5038 20.4216 25.3597 20.4216 25.3597" fill="#A9C6D8"/>
<path d="M13.5825 21.6963L8.702 20.1059C8.702 20.1059 8.11946 19.8695 8.30658 19.3327C8.34522 19.222 8.42302 19.128 8.65607 18.9654C9.73777 18.2117 28.6737 11.4054 28.6737 11.4054C28.6737 11.4054 29.2085 11.2254 29.5246 11.3451C29.669 11.3998 29.7612 11.4617 29.8388 11.6875C29.8671 11.7697 29.8834 11.9444 29.8812 12.1183C29.8795 12.2437 29.8643 12.3598 29.8531 12.542C29.7378 14.4031 26.287 28.2909 26.287 28.2909C26.287 28.2909 26.0805 29.1036 25.3407 29.1312C25.0709 29.1414 24.7434 29.0866 24.3519 28.7499C22.9002 27.501 17.882 24.1287 16.7734 23.3871C16.7107 23.3454 16.693 23.291 16.6824 23.238C16.6668 23.16 16.7502 23.0627 16.7502 23.0627C16.7502 23.0627 25.4878 15.2958 25.7203 14.4808C25.7383 14.4176 25.6707 14.3864 25.579 14.4137C24.9987 14.6273 14.9383 20.9798 13.8281 21.6815C13.7632 21.7226 13.5812 21.6961 13.5812 21.6961" fill="white"/>
</g>
<defs>
<linearGradient id="paint0_linear_2_1034" x1="20" y1="39.9998" x2="20" y2="-0.000245786" gradientUnits="userSpaceOnUse">
<stop stop-color="#1D93D2"/>
<stop offset="1" stop-color="#38B0E3"/>
</linearGradient>
<clipPath id="clip0_2_1034">
<rect width="40" height="40" fill="white"/>
</clipPath>
</defs>
</svg>
