<svg width="38" height="38" viewBox="0 0 38 38" fill="none" xmlns="http://www.w3.org/2000/svg">
<path d="M18.9992 0.536133C8.80156 0.536133 0.535156 8.80253 0.535156 19.0001C0.535156 29.1977 8.80156 37.4641 18.9992 37.4641C29.1968 37.4641 37.4632 29.1977 37.4632 19.0001C37.4632 8.80253 29.1968 0.536133 18.9992 0.536133ZM28.9224 26.0069C28.1344 26.4997 24.9324 26.6465 24.1572 26.0833C23.732 25.7745 23.3432 25.3881 22.974 25.0201C22.7156 24.7629 22.4224 24.6381 22.2004 24.3589C22.0192 24.1305 21.8948 23.8609 21.704 23.6353C21.382 23.2569 20.8864 22.9349 20.4944 23.3973C19.904 24.0929 20.5872 25.4589 19.8 25.9785C19.536 26.1529 19.2696 26.2033 18.9396 26.1785L18.2088 26.2117C17.7796 26.2201 17.0996 26.2241 16.6112 26.1361C16.0664 26.0377 15.6164 25.7401 15.1236 25.5217C14.1884 25.1069 13.2976 24.5417 12.6196 23.7589C10.7744 21.6269 8.29596 18.6949 7.33316 16.0145C7.13516 15.4637 6.61196 14.3729 7.10796 13.9005C7.78236 13.4105 11.0924 13.2725 11.6088 14.0301C11.8184 14.3381 11.9508 14.7885 12.0992 15.1377C12.284 15.5729 12.384 15.9829 12.6728 16.3681C12.9284 16.7097 13.1168 17.0533 13.3144 17.4277C13.5364 17.8481 13.746 18.2513 14.016 18.6381C14.1992 18.9013 14.6836 19.4249 14.9896 19.4637C15.7368 19.5593 15.6904 17.7437 15.6348 17.3005C15.5816 16.8733 15.568 16.4201 15.582 15.9869C15.594 15.6173 15.6272 15.0965 15.4084 14.7949C15.0516 14.3029 14.2568 14.6709 14.1948 14.0097C14.326 13.8221 14.2984 13.6557 15.1748 13.3669C15.8652 13.1401 16.3112 13.1473 16.7664 13.1837C17.6944 13.2581 18.6784 13.0069 19.5744 13.3077C20.4304 13.5961 20.298 14.8125 20.2692 15.5413C20.2304 16.5361 20.272 17.5073 20.2692 18.5173C20.268 18.9769 20.2496 19.4245 20.8104 19.3869C21.336 19.3521 21.3896 18.9097 21.6404 18.5449C21.9892 18.0361 22.3096 17.5201 22.6648 17.0133C23.1436 16.3281 23.2884 15.5581 23.7392 14.8561C23.9004 14.6053 24.0392 14.0709 24.2876 13.8725C24.4756 13.7217 24.8328 13.8005 25.0604 13.8005H25.6016C26.0156 13.8005 26.438 13.7973 26.8636 13.8121C27.4764 13.8333 28.1628 13.6925 28.7704 13.7785C31.3924 14.1485 25.4748 19.7537 25.7828 20.7545C25.9956 21.4457 27.3456 22.2181 27.8328 22.7841C28.4796 23.5381 30.4708 25.0369 28.9224 26.0069Z" fill="#4C75A3"/>
</svg>
