<svg width="40" height="40" viewBox="0 0 40 40" fill="none" xmlns="http://www.w3.org/2000/svg">
<path d="M40 20C40 8.95431 31.0457 0 20 0C8.95431 0 0 8.95431 0 20C0 31.0457 8.95431 40 20 40C31.0457 40 40 31.0457 40 20Z" fill="#25D366"/>
<path d="M28.5993 11.3738C26.3248 9.09384 23.2956 7.83984 20.0764 7.83984C13.4319 7.83984 8.025 13.2467 8.025 19.8913C8.025 22.0138 8.57875 24.0875 9.63187 25.917L7.92188 32.1598L14.3113 30.4824C16.0702 31.4433 18.0516 31.9482 20.071 31.9482H20.0764C26.7156 31.9482 32.2419 26.5413 32.2419 19.8967C32.2419 16.6775 30.8739 13.6538 28.5993 11.3738ZM20.0764 29.9178C18.2742 29.9178 16.5099 29.4347 14.9736 28.5227L14.6099 28.3055L10.8208 29.299L11.8304 25.6022L11.5916 25.2222C10.5873 23.6262 10.0608 21.7858 10.0608 19.8913C10.0608 14.3704 14.5556 9.87552 20.0819 9.87552C22.7582 9.87552 25.2716 10.9178 27.1608 12.8124C29.0499 14.707 30.2116 17.2204 30.2062 19.8967C30.2062 25.423 25.5973 29.9178 20.0764 29.9178ZM25.5702 22.4155C25.2716 22.2635 23.7896 21.5362 23.5128 21.4384C23.2359 21.3353 23.035 21.2864 22.8342 21.5904C22.6333 21.8944 22.0579 22.5675 21.8788 22.7738C21.705 22.9747 21.5259 23.0018 21.2273 22.8498C19.4576 21.965 18.2959 21.2702 17.1288 19.267C16.8193 18.735 17.4382 18.773 18.0136 17.6222C18.1113 17.4213 18.0624 17.2475 17.9864 17.0955C17.9104 16.9435 17.3079 15.4615 17.0582 14.859C16.8139 14.2727 16.5642 14.3542 16.3796 14.3433C16.2059 14.3324 16.005 14.3324 15.8042 14.3324C15.6033 14.3324 15.2776 14.4084 15.0008 14.707C14.7239 15.011 13.9476 15.7384 13.9476 17.2204C13.9476 18.7024 15.0279 20.1355 15.1744 20.3364C15.3264 20.5373 17.297 23.5773 20.3208 24.8855C22.2316 25.7107 22.9808 25.7813 23.9362 25.6402C24.517 25.5533 25.7168 24.9127 25.9664 24.207C26.2162 23.5013 26.2162 22.8987 26.1402 22.7738C26.0696 22.6382 25.8688 22.5622 25.5702 22.4155Z" fill="white"/>
</svg>
